<svg  viewBox="0 0 1440 540" fill="none" xmlns="http://www.w3.org/2000/svg">
<path d="M456.5 156.5C171.901 65.1542 -63.6757 116.485 -204 138.5C-249.164 246.716 -297.297 515.721 -217.702 520C-118.208 525.349 -59.5 592.5 412.5 433C570.385 379.647 803.5 320 1009 416.5C1214.5 513 1496.81 549.567 1555 536.5C1530.5 492.004 1404.71 237.159 1499.5 149.346C1617.99 39.579 1211.43 69.9998 996 149.346C909.795 181.095 723.784 242.288 456.5 156.5Z" fill="url(#paint0_linear_231_317)"/>
<path d="M545.354 102.052C545.316 102.33 544.579 103.074 544.53 103.794C545.905 117.024 553.864 128.027 558.717 140.025C552.825 136.043 547.764 129.695 541.691 126.131C535.618 122.566 531.617 114.345 525.084 111.798C527.392 113.558 532.347 120.704 535.485 123.815C539.937 128.229 546.177 132.692 549.958 137.737C553.739 142.782 561.684 146.318 564.013 152.097C565.739 156.877 558.381 161.4 558.289 166.885C552.763 163.444 547.273 159.033 541.932 154.932C541.067 154.612 540.417 153.822 539.366 154.093C540.083 155.853 542.188 156.636 542.837 158.388C547.072 161.972 549.474 164.285 553.839 168.015C558.204 171.746 552.985 177.536 552.004 182.822C551.024 188.117 543.954 183.376 540.64 180.934C539.253 179.91 536.659 178.889 536.108 176.868C535.557 174.838 530.588 173.817 532.036 174.963C538.007 187.234 553.415 195.672 551.31 211.123C549.196 226.565 541.45 234.54 532.118 246.664C522.787 258.788 529.237 276.625 536.442 288.329C543.639 300.042 547.569 315.152 559.001 324.524C570.424 333.905 581.831 340.01 596.984 336.547C612.136 333.085 627.236 328.427 643.372 327.968C659.508 327.509 664.778 342.795 669.922 356.557C675.074 370.31 672.91 390.665 669.243 404.773C665.568 418.872 658.778 431.861 657.153 446.501C659.947 446.705 662.014 444.482 664.783 444.687C664.911 456.034 665.336 467.351 669.556 477.554C677.165 472.743 673.636 459.942 676.144 451.686C678.652 443.429 681.742 435.418 684.08 427.154C678.635 427.793 674.507 432.619 668.846 432.515C689.729 408.703 692.723 372.434 679.367 344.042C684.028 349.337 690.576 352.264 697.33 349.913C696.216 342.926 689.732 338.152 689.372 330.94C695.892 329.406 702.087 327.755 708.887 327.266C709.006 327.23 709.031 325.619 708.86 325.534C677.72 322.186 647.051 316.805 615.913 313.535C617.287 316.492 622.07 318.611 622.07 318.611C613.708 322.01 608.999 324.827 600.189 326.819C591.387 328.819 582.619 325.378 575.597 319.918C568.568 314.466 564.683 311.921 557.654 305.993C550.625 300.065 547.585 291.288 548.139 281.64C548.702 272.001 554.829 273.015 559.007 266.5C552.592 266.049 549.532 262.561 543.343 261.328C539.832 261.037 535.663 262.693 535.658 259.678C535.65 251.63 547.959 245.74 550.551 237.942C553.143 230.144 559.804 224.208 562.965 215.84C566.127 207.481 564.121 192.551 565.734 183.628C567.355 174.705 572.77 168.427 577.879 161.564C582.979 154.691 588.653 149.19 595.041 143.621C601.43 138.052 607.218 133.32 614.379 128.687C621.548 124.062 628.701 119.507 636.746 115.903C644.799 112.3 652.605 108.708 661.469 106.309C670.332 103.909 681.913 103.292 691.18 101.659C692.92 101.354 691.931 100.638 694.265 101.323C693.568 102.994 691.708 103.759 690.052 103.967C687.231 105.366 677.331 109.977 676.899 113.897C676.458 117.817 692.971 116.93 696.212 116.895C699.845 116.856 703.662 117.153 707.273 116.777C715.397 114.957 723.325 109.38 729.839 104.19C736.361 99.0007 742.466 93.2698 748.73 87.9616C754.995 82.6535 760.863 76.4314 766.904 71.0217C772.946 65.6033 779.436 60.5353 785.23 55.085C791.025 49.6346 800.417 44.0417 807.303 42.0101C814.181 39.97 832.901 33.3589 833.577 43.3312C834.253 53.3036 828.711 61.8265 827.682 71.5919C826.645 81.3573 824.014 92.6126 823.634 102.536C823.254 112.459 821.594 123.192 818.073 131.979C814.561 140.767 812.47 148.516 808.314 156.409C807.942 151.735 803.524 149.435 802.114 145.283C800.695 141.132 794.072 140.969 792.699 137.518C791.68 134.956 793.036 130.844 793.413 128.848C793.639 122.66 798.235 115.152 805.12 115.728C805.118 113.415 805.005 111.112 805.011 108.799C804.822 107.095 802.27 101.725 806.604 101.852C805.74 98.3353 801.659 95.321 798 95.88C802.722 91.524 809.445 88.8444 813.11 82.7238C810.715 82.5069 808.442 82.9471 806.317 83.6629C807.087 81.7748 809.043 80.5844 810.503 79.2867C813.517 76.1357 815.11 74.0569 815.472 70.5706C817.024 64.8625 820.598 56.17 823.653 49.6921C804.549 48.658 791.283 67.0874 783.533 82.391C775.792 97.7032 758.362 111.092 757.678 129.231C757.582 131.813 757.99 134.451 757.8 137.026C758.762 135.924 759.702 134.545 761.163 134.391C761.186 135.838 761.208 137.275 761.231 138.722C762.928 151.88 774.973 159.721 786.301 163.575C782.591 153.843 789.83 147.702 793.917 156.494C798.004 165.287 801.798 166.831 801.821 176.403C801.844 185.975 801.368 190.892 807.909 198.212C814.457 205.531 821.192 201.422 821.71 192.71C822.228 184.007 826.106 177.373 824.671 168.362C823.236 159.351 825.048 150.175 826.538 142.076C828.027 133.978 830.058 127.892 831.755 119.965C833.46 112.046 835.001 103.99 834.586 95.488C834.171 86.9855 833.951 76.8177 835.204 68.8172C836.465 60.8252 840.219 54.9462 840.629 46.9114C840.798 43.6091 841.2 38.8662 840.451 35.6516C836.344 29.3804 821.319 31.196 813.217 31.6727C805.123 32.1492 797.283 36.8505 790.519 40.7173C783.755 44.5841 778.804 49.5923 772.886 54.7841C766.969 59.9759 762.327 64.5823 755.955 69.545C749.582 74.5078 744.466 77.6119 737.441 82.7376C730.407 87.8548 720.914 88.1124 711.942 89.0055C702.969 89.8987 699.147 81.1555 694.484 74.6824C689.82 68.2006 685.608 62.2424 680.726 56.4906C675.836 50.7389 671.576 43.9496 664.967 40.3906C658.359 36.8404 651.459 28.8319 644.487 34.0697C637.514 39.3074 636.431 49.9483 637.427 58.6178C638.423 67.2873 635.485 77.948 632.728 85.5056C629.962 93.0545 626.813 100.053 621.363 105.786C615.914 111.518 610.377 116.039 604.103 120.221C597.829 124.394 591.421 128.699 585.589 133.414C579.749 138.128 575 143.533 569.05 147.711C559.923 133.42 550.641 118.403 545.354 102.052ZM645.895 55.9282C645.528 53.2033 645.321 51.8894 645.958 49.1018C649.357 34.224 664.116 47.2644 671.031 56.7714C677.947 66.2784 685.411 78.9464 689.833 90.1087C674.958 91.169 660.525 93.8879 646.563 98.3689C649.392 84.5214 647.45 69.8587 645.895 55.9282ZM551.404 270.046C549.228 269.143 546.674 269.603 544.57 268.387C546.103 266.872 551.604 266.562 551.404 270.046Z" fill="white"/>
<path d="M885.985 333.165C886.01 327.707 886.016 322.154 885.726 316.708C879.221 259.759 859.547 206.295 837.216 154.367C836.205 171.244 830.963 191.753 839.083 207C847.212 222.237 850.755 235.436 856.67 251.122C862.593 266.798 865.243 284.841 868.648 301.108C872.053 317.375 875.169 334.208 884.502 347.041C884.783 342.17 885.97 338.129 885.985 333.165Z" fill="white"/>
<path d="M796.651 280.413C797.374 284.156 797.417 287.967 796.829 291.673C796.664 309.329 783.036 322.573 769.378 331.816C797.319 330.347 819.845 295.272 804.118 268.205C810.538 267.867 815.924 271.639 822.054 272.344C812.648 254.383 793.481 241.247 774.684 236.468C787.096 247.553 795.253 263.466 796.651 280.413Z" fill="white"/>
<path d="M714.038 276.1C714.004 276.1 714.024 275.234 714.024 275.234C691.427 268.301 595.028 276.4 586.507 283.53C632.572 280.699 670.943 276.562 714.038 276.1Z" fill="white"/>
<path d="M614.271 290.135C604.721 290.03 596.678 291.746 587.508 293.049C590.944 294.589 596.517 294.993 600.626 294.949C607.576 294.19 617.096 294.096 624.007 294.698C641.894 293.025 659.089 294.993 676.064 296.431C693.038 297.869 708.914 301.442 724.671 302.841C692.88 289.997 658.214 289.692 623.202 290.068C621.197 290.288 616.908 290.107 614.271 290.135Z" fill="white"/>
<path d="M595.316 302.494C609.405 305.531 625.58 303.747 639.628 306.351C653.668 308.955 666.874 309.438 680.578 312.842C681.512 312.746 681.782 312.067 682.266 311.958C659.229 302.943 634.845 299.932 608.426 300.215C605.023 300.251 598.024 302.613 595.316 302.494Z" fill="white"/>
<path fill-rule="evenodd" clip-rule="evenodd" d="M596.993 231.746C594.898 234.186 592.881 236.535 591.698 234.963C593.904 228.348 597.262 223.019 600.768 217.456C602.791 214.245 604.864 210.956 606.793 207.297C612.065 197.295 625.209 193.828 635.274 192.048C635.389 192.041 635.511 192.033 635.637 192.024C637.392 191.906 640.15 191.72 643.407 192.931C644.564 193.362 645.654 194.18 646.895 195.111C647.577 195.622 648.303 196.167 649.112 196.701C651.393 198.21 654.798 199.322 654.798 199.322C654.798 199.322 658.579 199.974 660.461 200.441C661.116 200.604 661.663 200.698 662.162 200.784C663.666 201.043 664.725 201.225 666.932 202.971C666.417 202.891 664.664 203.519 663.161 204.057C662.226 204.392 661.388 204.693 661.004 204.767C651.311 205.545 644.402 211.126 636.923 217.167C635.758 218.107 634.579 219.059 633.374 220.006C629.203 223.29 623.806 223.223 618.415 223.157C612.257 223.081 606.105 223.005 601.799 227.924C601.799 227.924 601.286 227.757 600.948 227.934C599.733 228.555 598.347 230.169 596.993 231.746ZM626.049 215.04C629.812 215 645.115 205.796 645.075 203.258C645.035 200.719 638.485 197.825 626.486 200.635C614.487 203.446 610.009 212.79 610.049 215.328C610.077 217.13 615.855 216.766 621.285 215.781C623.505 215.378 625.325 215.048 626.049 215.04Z" fill="white"/>
<defs>
<linearGradient id="paint0_linear_231_317" x1="-221.78" y1="117.05" x2="1499.69" y2="420.537" gradientUnits="userSpaceOnUse">
<stop stop-color="#F4442A"/>
<stop offset="1" stop-color="#F1314A"/>
</linearGradient>
</defs>
</svg>
