<svg width="56" height="72" viewBox="0 0 56 72" fill="none" xmlns="http://www.w3.org/2000/svg">
<mask id="mask0_207_299" style="mask-type:alpha" maskUnits="userSpaceOnUse" x="0" y="0" width="56" height="72">
<path d="M3.15222 10.4003C3.14566 10.4423 3.03007 10.554 3.02088 10.663C3.20082 12.6712 4.4026 14.3524 5.12236 16.1794C4.22267 15.566 3.45694 14.5954 2.52835 14.0451C1.59975 13.4947 1.00214 12.2417 0 11.8451C0.351998 12.1156 1.09934 13.2071 1.57611 13.6839C2.25253 14.3603 3.20476 15.0472 3.7761 15.8182C4.34744 16.5892 5.56499 17.1382 5.91042 18.0182C6.16522 18.7458 5.0186 19.4196 4.99102 20.251C4.14649 19.7204 3.30983 19.0426 2.49551 18.4122C2.36285 18.3623 2.26435 18.2415 2.10148 18.2809C2.20787 18.5488 2.53097 18.6709 2.62685 18.9376C3.27174 19.4879 3.63688 19.8425 4.30147 20.4152C4.96606 20.9878 4.14649 21.8573 3.98231 22.6572C3.81813 23.4584 2.73849 22.7281 2.23282 22.3525C2.02136 22.1949 1.62339 22.0359 1.54328 21.7286C1.46316 21.42 0.698743 21.2571 0.919398 21.4331C1.81121 23.3034 4.16882 24.6076 3.80631 26.9468C3.44249 29.2847 2.22757 30.4813 0.757845 32.3043C-0.711878 34.1273 0.240355 36.8422 1.32393 38.6285C2.40619 40.416 2.4942 42.683 4.2358 44.1225C5.97609 45.5633 8.20366 46.5379 10.5508 46.0375C12.8978 45.5371 15.2397 44.8554 17.7313 44.8121C20.2228 44.7687 20.9991 47.0948 21.7595 49.1897C22.5213 51.2833 22.1378 54.3659 21.5376 56.4989C20.936 58.6306 19.8564 60.5889 19.5701 62.806C20.0009 62.8415 20.3253 62.5079 20.7521 62.5433C20.7443 64.2639 20.7823 65.9806 21.4088 67.5343C22.5949 66.8172 22.0813 64.8707 22.4885 63.6229C22.8956 62.3752 23.3921 61.1655 23.773 59.9165C22.9311 60.0045 22.2823 60.7295 21.4088 60.7045C24.6898 57.1281 25.2401 51.634 23.2476 47.3076C23.9543 48.118 24.9577 48.5724 26.0058 48.227C25.8509 47.1657 24.8618 46.4315 24.8238 45.3374C25.8338 45.1155 26.7939 44.8751 27.8446 44.8121C27.863 44.8068 27.8709 44.5625 27.8446 44.5494C23.0467 43.9912 18.3262 43.1256 13.5283 42.5792C13.7332 43.0297 14.382 43.2478 14.4477 43.7613C13.1487 44.2631 11.8747 44.6584 10.51 44.946C9.1467 45.235 7.80175 44.6991 6.73131 43.8598C5.65955 43.0219 4.97789 42.6029 3.90744 41.6927C2.837 40.7825 2.38912 39.4467 2.49814 37.9849C2.60846 36.5243 4.19902 36.3365 4.85968 35.3554C3.87067 35.2766 3.05372 34.7644 2.10148 34.5673C1.56035 34.5174 0.912831 34.7617 0.919398 34.3047C0.937786 33.0845 2.5625 32.1598 2.98148 30.9817C3.40046 29.8035 4.51162 29.0299 5.01992 27.7664C5.52821 26.5042 5.25502 24.2372 5.52559 22.887C5.79746 21.5368 6.64856 20.5938 7.45369 19.5615C8.25751 18.5278 9.1467 17.703 10.1462 16.8689C11.1457 16.0349 12.0507 15.327 13.1671 14.6361C14.2848 13.9466 15.3999 13.2675 16.6503 12.7343C17.902 12.201 19.1156 11.6691 20.4894 11.3197C21.8633 10.9703 23.6522 10.8955 25.0864 10.663C25.3557 10.6196 25.7786 10.4239 26.1372 10.5317C26.0255 10.7838 25.7366 10.8968 25.4805 10.9257C25.0418 11.1332 23.5024 11.8162 23.4263 12.4098C23.3488 13.0035 25.8995 12.8958 26.3999 12.8958C26.9607 12.8958 27.5491 12.947 28.1073 12.8958C29.3656 12.6331 30.6028 11.8004 31.6207 11.0242C32.64 10.248 33.5961 9.38897 34.5759 8.59435C35.5558 7.79972 36.4765 6.86588 37.4221 6.0555C38.3678 5.2438 39.3818 4.48595 40.2893 3.669C41.1969 2.85205 42.6601 2.01934 43.7279 1.7225C44.7944 1.42435 47.6997 0.452419 47.7798 1.96549C47.8599 3.47855 46.9839 4.76177 46.8013 6.24069C46.6174 7.7196 46.184 9.42181 46.1013 10.9257C46.0185 12.4296 45.7361 14.0543 45.1714 15.3808C44.6079 16.7074 44.2664 17.879 43.6058 19.0689C43.5598 18.3597 42.8834 18.0037 42.6758 17.372C42.467 16.7402 41.4452 16.7048 41.2416 16.1794C41.0905 15.7893 41.3099 15.168 41.3729 14.866C41.4228 13.9282 42.1505 12.7973 43.2117 12.8958C43.217 12.5451 43.2052 12.1958 43.2117 11.8451C43.1868 11.5863 42.8059 10.7681 43.4744 10.7943C43.3496 10.2598 42.7271 9.79613 42.161 9.87494C42.9004 9.22216 43.9446 8.82682 44.5251 7.9048C44.1561 7.86802 43.8041 7.93107 43.4744 8.03614C43.5979 7.75113 43.9026 7.57381 44.1311 7.37943C44.604 6.90659 44.8548 6.594 44.9192 6.066C45.1727 5.20308 45.7453 3.89097 46.2326 2.91378C43.2866 2.72596 41.1943 5.4986 39.961 7.80629C38.729 10.1153 36.0063 12.117 35.8565 14.866C35.8355 15.2574 35.892 15.658 35.8565 16.048C36.0076 15.8825 36.156 15.675 36.3819 15.654C36.3819 15.8734 36.3819 16.0914 36.3819 16.3107C36.6118 18.3084 38.4519 19.5168 40.1908 20.1197C39.6418 18.6381 40.774 17.7187 41.3834 19.0584C41.9929 20.3981 42.5747 20.6385 42.555 22.0898C42.5353 23.5411 42.4499 24.2858 43.4416 25.4062C44.4345 26.5266 45.484 25.9145 45.5851 24.5945C45.6862 23.2758 46.3009 22.2763 46.1013 20.9077C45.9016 19.5391 46.2037 18.1508 46.4533 16.9254C46.7028 15.7 47.0312 14.7806 47.3122 13.5814C47.5946 12.3836 47.8521 11.1647 47.8087 9.87494C47.7654 8.58515 47.7562 7.04319 47.9689 5.83221C48.183 4.62255 48.7767 3.7373 48.8595 2.51975C48.8936 2.01934 48.9672 1.30089 48.8595 0.812298C48.2408 -0.145189 45.9174 0.105676 44.6657 0.16478C43.4153 0.223884 42.1938 0.923939 41.1404 1.49922C40.0871 2.0745 39.3108 2.82578 38.3849 3.60333C37.4589 4.38088 36.7313 5.07174 35.7357 5.81382C34.7401 6.55591 33.9429 7.01823 32.8462 7.78396C31.7481 8.54838 30.2824 8.57202 28.8954 8.69285C27.5084 8.81369 26.9397 7.48187 26.2357 6.49287C25.5317 5.50254 24.896 4.59234 24.1565 3.71234C23.4158 2.83235 22.7748 1.79605 21.7635 1.24573C20.7521 0.696717 19.7066 -0.52871 18.6178 0.254092C17.529 1.03689 17.3359 2.64847 17.4686 3.96452C17.6012 5.28057 17.1218 6.89215 16.6779 8.03351C16.2326 9.17357 15.7296 10.2296 14.8746 11.0899C14.0195 11.9502 13.154 12.6266 12.1755 13.2504C11.197 13.873 10.1974 14.5153 9.28592 15.2206C8.37309 15.9259 7.62707 16.7376 6.69847 17.3615C5.32463 15.1799 3.92846 12.8879 3.15222 10.4003ZM18.782 3.57049C18.7321 3.15676 18.6769 2.81002 18.782 2.38841C19.4584 -0.342203 21.7109 2.08501 22.7551 3.53766C23.7993 4.99031 24.8251 7.12462 25.4805 8.8242C23.182 8.96079 20.9478 9.34957 18.782 10.0063C19.2522 7.91137 18.9882 5.68511 18.782 3.57049ZM3.67759 35.8808C3.34398 35.7402 2.94864 35.8059 2.62685 35.6181C2.86721 35.3909 3.717 35.3528 3.67759 35.8808Z" fill="url(#paint0_linear_207_299)"/>
<path d="M55.1639 45.9943C55.1809 45.1669 55.1954 44.3249 55.1639 43.4988C54.2983 34.8538 51.3917 26.7158 48.0714 18.8064C47.8744 21.3636 47.0154 24.4646 48.2316 26.7894C49.4491 29.1128 49.964 31.1198 50.8388 33.5076C51.7148 35.8941 52.0799 38.6339 52.5659 41.1057C53.0519 43.5776 53.4919 46.1348 54.9012 48.0958C54.9563 47.3576 55.1494 46.7469 55.1639 45.9943Z" fill="url(#paint1_linear_207_299)"/>
<path d="M9.98193 30.6271C10.2761 31.0225 10.9447 29.8115 11.4267 29.5764C11.4792 29.5501 11.558 29.5764 11.558 29.5764C12.8268 28.1907 15.0544 29.4792 16.4506 28.4271C17.848 27.3764 19.0209 26.2797 20.752 26.1615C20.907 26.1339 21.5427 25.8778 21.6714 25.8988C21.2235 25.5415 20.3843 25.5258 19.8326 25.5048C19.3165 25.4851 18.7714 25.4693 18.2565 25.5048C16.2404 25.7372 14.4896 26.8261 12.8715 28.0003C13.6109 25.8607 15.7216 24.7981 17.7311 24.3227C17.5512 24.3266 17.1033 24.1808 16.8117 24.1913C15.254 24.4448 13.2169 24.9492 12.3789 26.457C11.541 27.9648 10.5441 29.051 9.98193 30.6271Z" fill="url(#paint2_linear_207_299)"/>
<path d="M41.5042 37.8508C41.6067 38.4195 41.604 38.9974 41.5042 39.5582C41.4359 42.235 39.3003 44.2209 37.1699 45.6C41.4858 45.4227 45.0479 40.1414 42.6863 36.012C43.6779 35.9712 44.5002 36.5518 45.4445 36.6687C44.0365 33.9302 41.1102 31.9075 38.2207 31.1523C40.1094 32.8532 41.3295 35.2791 41.5042 37.8508Z" fill="url(#paint3_linear_207_299)"/>
<path d="M28.7639 37.063C28.7586 37.063 28.7639 36.9316 28.7639 36.9316C22.1521 36.5928 15.3972 36.7911 9.0625 37.9824C15.4484 37.6054 22.1114 37.063 28.7639 37.063Z" fill="url(#paint4_linear_207_299)"/>
<path d="M13.5279 39.1644C12.0542 39.1329 10.6121 39.2445 9.1936 39.4271C9.72029 39.6662 10.5294 39.5585 11.1637 39.5585C12.2381 39.4547 13.5135 39.456 14.5787 39.5585C17.3434 39.3339 20.2369 39.8382 22.8532 40.0838C25.4696 40.3294 27.9112 40.8968 30.3398 41.1346C25.4643 39.1355 20.1147 39.0331 14.71 39.0331C14.4 39.0633 13.9351 39.1644 13.5279 39.1644Z" fill="url(#paint5_linear_207_299)"/>
<path d="M10.376 40.8719C12.5431 41.3553 15.0439 41.111 17.2058 41.5287C19.3664 41.9463 21.4035 42.0409 23.5102 42.5794C23.6547 42.5663 23.6981 42.4638 23.7729 42.4481C20.0231 41.2147 16.1616 40.7406 12.0834 40.7406C11.5581 40.7406 10.7936 40.8943 10.376 40.8719Z" fill="url(#paint6_linear_207_299)"/>
<path d="M30.6026 67.6658C31.3933 66.7398 32.3114 65.8243 33.2295 65.0389C39.3501 58.9879 46.9863 55.3642 54.2443 51.2479C53.3472 49.6337 51.0159 51.1717 49.5265 51.5211C48.0357 51.8692 46.4373 52.8319 45.0096 53.44C43.5832 54.0495 42.1831 54.9334 40.8776 55.7438C39.572 56.5542 38.3282 57.4775 37.1369 58.4389C35.9457 59.4004 34.866 60.4038 33.7877 61.5255C32.7081 62.6472 31.7125 63.7951 30.8982 65.0717C30.0825 66.3471 28.6982 67.7143 28.8952 69.2419C29.5572 68.9398 30.1154 68.2358 30.6026 67.6658Z" fill="url(#paint7_linear_207_299)"/>
<path d="M24.9551 65.8268C24.9078 65.4328 24.9787 64.7301 24.9551 64.3821C24.9551 64.2074 24.9551 64.0314 24.9551 63.8567C21.967 65.8255 23.0611 71.7977 26.9252 71.9999C26.9502 70.6235 26.6967 69.3219 26.7939 67.9283C26.1306 67.9927 26.1083 69.0224 25.4804 69.1104C25.3294 67.994 24.9787 66.9761 24.9551 65.8268Z" fill="url(#paint8_linear_207_299)"/>
</mask>
<g mask="url(#mask0_207_299)">
<rect y="-1.39392" width="56.2281" height="73.4218" fill="white"/>
</g>
<defs>
<linearGradient id="paint0_linear_207_299" x1="45.5179" y1="67.5343" x2="0.00981278" y2="2.36597" gradientUnits="userSpaceOnUse">
<stop stop-color="#F4530D"/>
<stop offset="0.577269" stop-color="#F03049"/>
</linearGradient>
<linearGradient id="paint1_linear_207_299" x1="54.6553" y1="48.0958" x2="37.5932" y2="39.3549" gradientUnits="userSpaceOnUse">
<stop stop-color="#F4530D"/>
<stop offset="0.577269" stop-color="#F03049"/>
</linearGradient>
<linearGradient id="paint2_linear_207_299" x1="20.8594" y1="30.7058" x2="18.417" y2="22.0418" gradientUnits="userSpaceOnUse">
<stop stop-color="#F4530D"/>
<stop offset="0.577269" stop-color="#F03049"/>
</linearGradient>
<linearGradient id="paint3_linear_207_299" x1="44.8697" y1="45.6" x2="34.5793" y2="33.9478" gradientUnits="userSpaceOnUse">
<stop stop-color="#F4530D"/>
<stop offset="0.577269" stop-color="#F03049"/>
</linearGradient>
<linearGradient id="paint4_linear_207_299" x1="27.3953" y1="37.9824" x2="27.3424" y2="36.2627" gradientUnits="userSpaceOnUse">
<stop stop-color="#F4530D"/>
<stop offset="0.577269" stop-color="#F03049"/>
</linearGradient>
<linearGradient id="paint5_linear_207_299" x1="28.8709" y1="41.1346" x2="28.7196" y2="38.1254" gradientUnits="userSpaceOnUse">
<stop stop-color="#F4530D"/>
<stop offset="0.577269" stop-color="#F03049"/>
</linearGradient>
<linearGradient id="paint6_linear_207_299" x1="22.8423" y1="42.5794" x2="22.6599" y2="39.9524" gradientUnits="userSpaceOnUse">
<stop stop-color="#F4530D"/>
<stop offset="0.577269" stop-color="#F03049"/>
</linearGradient>
<linearGradient id="paint7_linear_207_299" x1="52.4821" y1="69.2419" x2="43.6798" y2="45.6565" gradientUnits="userSpaceOnUse">
<stop stop-color="#F4530D"/>
<stop offset="0.577269" stop-color="#F03049"/>
</linearGradient>
<linearGradient id="paint8_linear_207_299" x1="26.6711" y1="71.9999" x2="20.8625" y2="66.8059" gradientUnits="userSpaceOnUse">
<stop stop-color="#F4530D"/>
<stop offset="0.577269" stop-color="#F03049"/>
</linearGradient>
</defs>
</svg>
