<svg width="129" height="159" viewBox="0 0 129 159" fill="none" xmlns="http://www.w3.org/2000/svg">
<path d="M7.9081 25.1663C7.89457 25.2647 7.63333 25.5284 7.61623 25.7834C8.10326 30.4723 10.9242 34.3717 12.6438 38.6237C10.5557 37.2123 8.76208 34.9628 6.61 33.6995C4.45792 32.4362 3.03983 29.5226 0.724545 28.6203C1.54261 29.244 3.2985 31.7763 4.41061 32.8788C5.98839 34.443 8.19977 36.0249 9.53981 37.8127C10.8799 39.6004 13.6953 40.8535 14.5207 42.9016C15.1324 44.5958 12.5249 46.1987 12.4922 48.1424C10.5338 46.9231 8.58808 45.3598 6.69539 43.9064C6.389 43.7931 6.15841 43.5131 5.78596 43.6092C6.04006 44.2327 6.78633 44.5103 7.01626 45.131C8.51703 46.4013 9.36834 47.2211 10.9152 48.543C12.462 49.865 10.6125 51.9171 10.265 53.7905C9.91757 55.667 7.4121 53.9869 6.23738 53.1214C5.74611 52.7583 4.82662 52.3967 4.63137 51.6804C4.43608 50.961 2.67518 50.5992 3.18823 51.0051C5.30447 55.3541 10.765 58.3441 10.0189 63.8199C9.26968 69.2925 6.52456 72.1187 3.21754 76.4153C-0.089474 80.712 2.19657 87.0332 4.74995 91.1811C7.30037 95.3321 8.69323 100.687 12.7445 104.008C16.7928 107.333 20.8353 109.496 26.2052 108.269C31.5752 107.042 36.9264 105.391 42.6448 105.229C48.3633 105.066 50.2309 110.483 52.0539 115.36C53.8799 120.234 53.1129 127.448 51.8134 132.448C50.5109 137.444 48.1044 142.047 47.5287 147.236C48.519 147.308 49.2515 146.52 50.2328 146.593C50.278 150.614 50.4286 154.625 51.9241 158.241C54.6206 156.536 53.3699 151.999 54.2587 149.073C55.1476 146.147 56.2428 143.308 57.0713 140.379C55.1417 140.606 53.6788 142.316 51.6727 142.279C59.0733 133.84 60.1345 120.987 55.401 110.925C57.053 112.802 59.3735 113.839 61.767 113.006C61.3721 110.53 59.0745 108.838 58.9468 106.282C61.2574 105.738 63.4527 105.153 65.8627 104.98C65.9047 104.967 65.9138 104.396 65.853 104.366C54.8175 103.18 43.9487 101.273 32.9136 100.114C33.4006 101.162 35.0957 101.913 35.0957 101.913C32.132 103.117 30.4635 104.116 27.3412 104.821C24.2219 105.53 21.1145 104.311 18.6261 102.376C16.1348 100.444 14.7581 99.5419 12.2671 97.4411C9.77609 95.3403 8.69869 92.2296 8.89515 88.8105C9.09466 85.3945 11.2661 85.7541 12.7467 83.4449C10.4732 83.2851 9.38877 82.0493 7.19542 81.6122C5.95127 81.5089 4.47372 82.0958 4.47197 81.0274C4.46927 78.1754 8.83132 76.0881 9.74983 73.3244C10.6683 70.5607 13.0289 68.457 14.1493 65.4917C15.2698 62.5294 14.5592 57.2381 15.1306 54.076C15.7051 50.9139 17.6243 48.689 19.4346 46.2566C21.242 43.8211 23.253 41.8716 25.5169 39.8979C27.7809 37.9241 29.8323 36.2474 32.3699 34.6054C34.9106 32.9664 37.4456 31.3521 40.2965 30.0751C43.1505 28.7981 45.917 27.5251 49.0582 26.6748C52.1993 25.8245 56.3034 25.6055 59.5876 25.027C60.2041 24.919 59.8537 24.665 60.6808 24.9079C60.4338 25.5 59.7746 25.771 59.1877 25.8449C58.1882 26.3406 54.6794 27.9746 54.5263 29.3639C54.3703 30.7533 60.2221 30.4388 61.3709 30.4265C62.6584 30.4127 64.0112 30.5179 65.2908 30.3845C68.1698 29.7397 70.9795 27.7632 73.2878 25.924C75.5991 24.0849 77.7627 22.0539 79.9828 20.1728C82.203 18.2916 84.2823 16.0865 86.4235 14.1694C88.5647 12.2492 90.8646 10.4531 92.9181 8.52157C94.9716 6.59001 98.3 4.60795 100.74 3.88798C103.178 3.16497 109.812 0.822063 110.052 4.35616C110.291 7.89026 108.327 10.9107 107.963 14.3715C107.595 17.8323 106.663 21.821 106.528 25.3376C106.393 28.8542 105.805 32.6582 104.557 35.7723C103.312 38.8863 102.572 41.6327 101.099 44.4299C100.967 42.7735 99.401 41.9583 98.9013 40.487C98.3987 39.0157 96.0515 38.958 95.5647 37.7352C95.2036 36.8273 95.6843 35.37 95.8179 34.6625C95.898 32.4696 97.5268 29.8089 99.9668 30.013C99.966 29.1933 99.926 28.3771 99.9281 27.5574C99.8613 26.9533 98.9568 25.0503 100.493 25.0953C100.186 23.8491 98.7401 22.7808 97.4434 22.9789C99.117 21.4352 101.5 20.4856 102.798 18.3165C101.95 18.2397 101.144 18.3957 100.391 18.6493C100.664 17.9802 101.357 17.5583 101.874 17.0984C102.943 15.9818 103.507 15.245 103.635 14.0095C104.185 11.9866 105.452 8.9061 106.535 6.61041C99.7643 6.24393 95.063 12.7751 92.3166 18.1986C89.5732 23.6251 83.3962 28.37 83.1536 34.7981C83.1198 35.7134 83.2642 36.6482 83.1971 37.5607C83.5378 37.1702 83.8709 36.6816 84.3888 36.6269C84.3968 37.1395 84.4049 37.6491 84.4129 38.1617C85.0142 42.8247 89.2831 45.6034 93.2976 46.9695C91.9826 43.5207 94.548 41.3442 95.9964 44.4601C97.4448 47.576 98.7894 48.1234 98.7976 51.5157C98.8058 54.9079 98.6372 56.6505 100.955 59.2443C103.276 61.8382 105.663 60.382 105.846 57.2947C106.03 54.2104 107.404 51.8594 106.895 48.6659C106.387 45.4724 107.029 42.2204 107.557 39.3505C108.085 36.4805 108.805 34.3237 109.406 31.5144C110.01 28.708 110.556 25.8532 110.409 22.84C110.262 19.8268 110.184 16.2235 110.628 13.3881C111.075 10.5559 112.406 8.47241 112.551 5.62494C112.611 4.45462 112.753 2.77379 112.488 1.63458C111.032 -0.587873 105.708 0.0555622 102.836 0.224479C99.9677 0.393365 97.1892 2.05945 94.7921 3.42981C92.395 4.80016 90.6406 6.57502 88.5435 8.41494C86.4463 10.2549 84.8013 11.8873 82.543 13.6461C80.2847 15.4048 78.4714 16.5049 75.9818 18.3214C73.4892 20.1349 70.125 20.2262 66.9453 20.5427C63.7655 20.8592 62.4109 17.7607 60.7583 15.4667C59.1056 13.1696 57.6127 11.0581 55.8827 9.01971C54.1497 6.98136 52.64 4.57529 50.298 3.31404C47.956 2.05587 45.5107 -0.782264 43.0398 1.07395C40.5689 2.93015 40.185 6.70119 40.538 9.77357C40.891 12.8459 39.8498 16.624 38.8726 19.3023C37.8924 21.9776 36.7764 24.4579 34.8451 26.4894C32.9138 28.521 30.9516 30.1231 28.7282 31.6052C26.5047 33.0842 24.2337 34.6098 22.167 36.2805C20.0974 37.9513 18.4145 39.8666 16.3057 41.3475C13.0714 36.2828 9.78172 30.9609 7.9081 25.1663ZM43.5388 8.82041C43.409 7.85474 43.3357 7.38908 43.5614 6.40119C44.766 1.12866 49.9964 5.75006 52.447 9.11924C54.8977 12.4884 57.5431 16.9778 59.1103 20.9337C53.8385 21.3094 48.7238 22.273 43.7757 23.861C44.7781 18.9536 44.0901 13.7572 43.5388 8.82041ZM10.0522 84.7018C9.28117 84.3816 8.37598 84.5448 7.63032 84.1137C8.17376 83.5768 10.1233 83.4669 10.0522 84.7018Z" fill="white"/>
<path d="M128.625 107.07C128.633 105.136 128.636 103.168 128.533 101.238C126.227 81.0562 119.255 62.1091 111.341 43.7062C110.983 49.6873 109.125 56.9556 112.003 62.3587C114.884 67.7587 116.14 72.4362 118.236 77.9951C120.335 83.5508 121.274 89.9448 122.48 95.7097C123.687 101.475 124.791 107.44 128.099 111.988C128.198 110.262 128.619 108.83 128.625 107.07Z" fill="white"/>
<path d="M96.9655 88.3756C97.2217 89.7022 97.2369 91.0528 97.0284 92.366C96.9701 98.6233 92.1404 103.317 87.3003 106.592C97.2021 106.072 105.185 93.6417 99.6116 84.0492C101.887 83.9297 103.796 85.2662 105.968 85.5161C102.635 79.1509 95.8422 74.4958 89.1807 72.8019C93.5793 76.7305 96.4698 82.3698 96.9655 88.3756Z" fill="white"/>
<path d="M67.6881 86.8472C67.6761 86.8473 67.6833 86.5403 67.6833 86.5403C59.6751 84.0833 25.512 86.9536 22.4924 89.4805C38.8172 88.477 52.4156 87.0108 67.6881 86.8472Z" fill="white"/>
<path d="M32.3316 91.8213C28.9473 91.7838 26.0968 92.3922 22.847 92.8537C24.065 93.3994 26.0398 93.5427 27.4962 93.5271C29.9589 93.2582 33.3329 93.2249 35.7821 93.4381C42.1211 92.8452 48.2149 93.5428 54.2304 94.0525C60.2459 94.5621 65.8723 95.8281 71.4563 96.3239C60.1899 91.7721 47.9048 91.6642 35.4968 91.7972C34.7863 91.8754 33.2664 91.8112 32.3316 91.8213Z" fill="white"/>
<path d="M25.6142 96.2011C30.6073 97.2774 36.3394 96.645 41.318 97.5679C46.2935 98.4908 50.9738 98.6617 55.8301 99.8684C56.1613 99.8341 56.2571 99.5937 56.4284 99.555C48.2644 96.3602 39.623 95.293 30.2604 95.3933C29.0543 95.4063 26.5739 96.243 25.6142 96.2011Z" fill="white"/>
<path fill-rule="evenodd" clip-rule="evenodd" d="M26.2087 71.1284C25.4661 71.9933 24.7514 72.8256 24.3321 72.2686C25.1137 69.9243 26.3037 68.036 27.5463 66.0643C28.2634 64.9265 28.9979 63.761 29.6816 62.464C31.5498 58.9196 36.208 57.6908 39.7748 57.0601C39.8158 57.0575 39.8588 57.0546 39.9035 57.0516C40.5257 57.0096 41.5031 56.9436 42.6572 57.3731C43.0671 57.5256 43.4534 57.8154 43.8935 58.1455C44.1349 58.3266 44.3924 58.5198 44.6789 58.7091C45.4875 59.2436 46.6941 59.6379 46.6941 59.6379C46.6941 59.6379 48.034 59.8689 48.701 60.0344C48.933 60.092 49.1271 60.1254 49.3038 60.1558C49.8368 60.2476 50.2123 60.3122 50.9943 60.9309C50.8117 60.9025 50.1905 61.1251 49.6578 61.316C49.3265 61.4347 49.0293 61.5412 48.8933 61.5674C45.4584 61.8433 43.0099 63.8209 40.3592 65.9618C39.9464 66.2952 39.5286 66.6326 39.1015 66.9681C37.6235 68.1317 35.7109 68.1081 33.8004 68.0846C31.6178 68.0577 29.4379 68.0308 27.9118 69.7743C27.9118 69.7743 27.7299 69.7148 27.6103 69.7775C27.1795 69.9977 26.6882 70.5699 26.2087 71.1284ZM36.5057 65.2081C37.8392 65.1938 43.2625 61.9323 43.2483 61.0326C43.2342 60.1329 40.9129 59.1072 36.6605 60.1032C32.4082 61.0991 30.8212 64.4107 30.8353 65.3104C30.8454 65.9489 32.8932 65.8197 34.8174 65.4706C35.6042 65.3279 36.2492 65.2109 36.5057 65.2081Z" fill="white"/>
</svg>
