<svg width="498" height="266" viewBox="0 0 498 266" fill="none" xmlns="http://www.w3.org/2000/svg">
<path d="M9.65001 27.5166C9.65001 23.932 9.50065 21.2435 9.20193 19.4512C8.90322 17.5593 8.30578 15.9662 7.40962 14.6717C6.51347 13.3773 5.06967 11.8837 3.07821 10.191L4.42244 8.24929H30.4109L31.4564 10.639C29.1663 11.9335 27.5233 13.0786 26.5276 14.0743C25.5319 15.07 24.8349 16.3147 24.4366 17.8083C24.1378 19.3019 23.9885 21.6418 23.9885 24.8282V66.4993C23.9885 69.6857 24.4366 71.7767 25.3327 72.7724C26.2289 73.7682 28.2203 74.266 31.3071 74.266H36.9827C39.8703 74.266 42.1605 73.3201 43.8533 71.4282C45.546 69.4367 47.2885 65.7028 49.0808 60.2263L52.068 61.2718V79.1949L50.5744 80.5391C49.28 79.5434 47.8362 78.8464 46.243 78.4481C44.6498 78.1494 42.2601 78 39.0738 78H2.33141L1.43526 75.3115C3.92458 74.6145 5.71689 73.9673 6.81219 73.3699C7.90749 72.6729 8.65428 71.7767 9.05257 70.6814C9.45087 69.5861 9.65001 67.8934 9.65001 65.6032V27.5166ZM86.1184 74.4154C89.006 74.4154 91.5451 73.9175 93.7357 72.9218C95.9263 71.8265 98.0671 70.0342 100.158 67.5449L101.95 68.8891C99.6603 72.175 96.7229 74.7639 93.1383 76.6558C89.6532 78.4481 85.8197 79.3442 81.6376 79.3442C77.0573 79.3442 72.925 78.2489 69.2408 76.0583C65.6562 73.8677 62.8184 70.8805 60.7273 67.0968C58.6363 63.2134 57.5908 58.8322 57.5908 53.9532C57.5908 46.1865 59.9307 40.013 64.6107 35.4326C69.3902 30.7527 75.713 28.4128 83.5793 28.4128C89.1553 28.4128 93.6859 29.757 97.171 32.4455C100.756 35.0344 102.548 38.4198 102.548 42.6019C102.548 47.3814 100.507 51.2149 96.4242 54.1025C92.4412 56.8906 86.9647 58.2846 79.9947 58.2846C77.2066 58.2846 74.6675 58.0855 72.3773 57.6872C72.8752 62.8649 74.3688 66.9474 76.8581 69.9346C79.3474 72.9218 82.4342 74.4154 86.1184 74.4154ZM81.9363 31.9974C78.8496 31.9974 76.41 33.8893 74.6177 37.673C72.925 41.3572 72.0786 46.535 72.0786 53.2064V55.5961C73.1739 55.5961 74.5182 55.4966 76.1113 55.2974C80.2934 54.7995 83.4797 53.4553 85.6703 51.2647C87.9605 48.9745 89.1056 45.9874 89.1056 42.3032C89.1056 39.316 88.4086 36.8765 87.0145 34.9846C85.7201 32.9931 84.0274 31.9974 81.9363 31.9974ZM125.658 79.3442C121.575 79.3442 118.638 78.4481 116.846 76.6558C115.053 74.7639 114.157 71.7269 114.157 67.5449V35.8807H106.689C106.689 34.188 106.789 33.0927 106.988 32.5948C107.187 32.097 107.784 31.6987 108.78 31.4C112.066 30.5038 114.655 29.1098 116.547 27.2179C118.439 25.326 119.982 22.5878 121.177 19.0031C121.476 17.9078 121.974 17.2606 122.671 17.0615C123.368 16.7628 125.06 16.6134 127.749 16.6134V30.0557H139.996C139.996 31.3502 139.797 32.545 139.399 33.6403C139 34.6361 138.453 35.3829 137.756 35.8807H127.749V69.4865C127.749 72.4737 128.993 73.9673 131.483 73.9673C132.578 73.9673 133.773 73.6188 135.067 72.9218C136.461 72.2248 137.706 71.2788 138.801 70.084L139.996 71.5776C135.715 76.7553 130.935 79.3442 125.658 79.3442ZM145.867 1.82684C147.958 0.731546 150.447 0.183897 153.335 0.183897C155.724 0.183897 157.616 0.83112 159.01 2.12557C160.504 3.32044 161.251 5.26211 161.251 7.95057C161.251 10.3403 160.554 12.7301 159.16 15.1198C157.766 17.41 155.525 20.3474 152.438 23.932L147.808 29.0102L143.776 26.3217L148.107 16.6134C149.003 14.8211 149.451 13.1284 149.451 11.5352C149.451 9.54373 148.605 7.851 146.912 6.45698L145.12 5.26211L144.672 2.42428L145.867 1.82684ZM181.188 38.5692C181.188 41.0585 182.134 43.0998 184.026 44.6929C186.017 46.1865 189.004 47.8792 192.987 49.7711C196.273 51.3643 198.812 52.7583 200.604 53.9532C202.397 55.0485 203.94 56.5421 205.235 58.434C206.629 60.3258 207.326 62.5662 207.326 65.1551C207.326 69.4367 205.284 72.872 201.202 75.4609C197.219 78.0498 191.842 79.3442 185.071 79.3442C179.993 79.3442 175.811 78.4481 172.525 76.6558C169.239 74.7639 167.596 72.3244 167.596 69.3372C167.596 67.3457 168.343 65.7028 169.836 64.4083C171.33 63.0143 173.172 62.3173 175.363 62.3173C177.056 62.3173 178.748 62.6658 180.441 63.3628C178.748 64.6573 177.902 66.7483 177.902 69.6359C177.902 71.6273 178.599 73.1707 179.993 74.266C181.387 75.3613 183.08 75.909 185.071 75.909C187.361 75.909 189.303 75.3115 190.896 74.1167C192.589 72.9218 193.435 71.2291 193.435 69.0385C193.435 66.9474 192.589 65.3045 190.896 64.1096C189.303 62.8152 186.764 61.3216 183.279 59.6288C180.092 58.1352 177.504 56.791 175.512 55.5961C173.62 54.3017 171.977 52.6089 170.583 50.5179C169.189 48.4269 168.492 45.8878 168.492 42.9006C168.492 38.4198 170.384 34.885 174.168 32.2961C177.952 29.7072 182.731 28.4128 188.506 28.4128C193.585 28.4128 197.717 29.3587 200.903 31.2506C204.189 33.1425 205.832 35.582 205.832 38.5692C205.832 40.8594 205.135 42.5521 203.741 43.6474C202.347 44.7427 200.555 45.2904 198.364 45.2904C196.273 45.2904 194.431 44.8423 192.838 43.9461C194.63 42.2534 195.526 40.1126 195.526 37.5237C195.526 35.8309 194.879 34.4867 193.585 33.491C192.29 32.3957 190.597 31.848 188.506 31.848C186.216 31.848 184.424 32.4953 183.129 33.7897C181.835 35.0841 181.188 36.6773 181.188 38.5692ZM256.93 92.0398C256.93 94.2304 257.578 96.0227 258.872 97.4167C260.266 98.8107 262.009 99.5077 264.1 99.5077C271.07 99.5077 274.555 93.8321 274.555 82.4808V67.9929C272.065 70.8805 269.477 73.0214 266.788 74.4154C264.1 75.8094 261.112 76.5064 257.827 76.5064C252.947 76.5064 248.965 74.4652 245.878 70.3827C242.891 66.3002 241.397 60.9233 241.397 54.2519C241.397 46.2861 243.837 40.013 248.716 35.4326C253.595 30.7527 260.166 28.4128 268.431 28.4128C270.622 28.4128 273.011 28.6119 275.6 29.0102C278.289 29.4085 279.932 29.6574 280.529 29.757C284.711 30.3544 287.599 30.7527 289.192 30.9519L290.387 32.1467L289.192 33.9391C288.296 35.1339 287.848 36.3786 287.848 37.673V78C287.848 85.8662 285.558 91.9402 280.977 96.2218C276.496 100.603 270.223 102.794 262.158 102.794C257.179 102.794 253.147 101.848 250.06 99.9558C246.973 98.0639 245.43 95.5746 245.43 92.4878C245.43 89.7994 246.226 87.6088 247.819 85.916C249.413 84.3229 251.504 83.5263 254.093 83.5263C255.984 83.5263 257.827 83.9246 259.619 84.7212C257.827 86.5135 256.93 88.953 256.93 92.0398ZM264.996 69.3372C268.979 69.3372 272.115 67.2461 274.405 63.0641V33.3416C272.115 32.3459 269.925 31.848 267.834 31.848C264.05 31.848 261.162 33.5408 259.171 36.9262C257.279 40.2121 256.333 45.0414 256.333 51.4141C256.333 57.1893 257.08 61.6203 258.573 64.707C260.067 67.7938 262.208 69.3372 264.996 69.3372ZM328.244 74.4154C331.131 74.4154 333.67 73.9175 335.861 72.9218C338.051 71.8265 340.192 70.0342 342.283 67.5449L344.076 68.8891C341.785 72.175 338.848 74.7639 335.263 76.6558C331.778 78.4481 327.945 79.3442 323.763 79.3442C319.182 79.3442 315.05 78.2489 311.366 76.0583C307.781 73.8677 304.943 70.8805 302.852 67.0968C300.761 63.2134 299.716 58.8322 299.716 53.9532C299.716 46.1865 302.056 40.013 306.736 35.4326C311.515 30.7527 317.838 28.4128 325.704 28.4128C331.28 28.4128 335.811 29.757 339.296 32.4455C342.881 35.0344 344.673 38.4198 344.673 42.6019C344.673 47.3814 342.632 51.2149 338.549 54.1025C334.566 56.8906 329.09 58.2846 322.12 58.2846C319.332 58.2846 316.793 58.0855 314.502 57.6872C315 62.8649 316.494 66.9474 318.983 69.9346C321.473 72.9218 324.559 74.4154 328.244 74.4154ZM324.061 31.9974C320.975 31.9974 318.535 33.8893 316.743 37.673C315.05 41.3572 314.204 46.535 314.204 53.2064V55.5961C315.299 55.5961 316.643 55.4966 318.236 55.2974C322.419 54.7995 325.605 53.4553 327.795 51.2647C330.086 48.9745 331.231 45.9874 331.231 42.3032C331.231 39.316 330.534 36.8765 329.14 34.9846C327.845 32.9931 326.152 31.9974 324.061 31.9974ZM367.783 79.3442C363.7 79.3442 360.763 78.4481 358.971 76.6558C357.178 74.7639 356.282 71.7269 356.282 67.5449V35.8807H348.814C348.814 34.188 348.914 33.0927 349.113 32.5948C349.312 32.097 349.91 31.6987 350.905 31.4C354.191 30.5038 356.78 29.1098 358.672 27.2179C360.564 25.326 362.107 22.5878 363.302 19.0031C363.601 17.9078 364.099 17.2606 364.796 17.0615C365.493 16.7628 367.185 16.6134 369.874 16.6134V30.0557H382.121C382.121 31.3502 381.922 32.545 381.524 33.6403C381.126 34.6361 380.578 35.3829 379.881 35.8807H369.874V69.4865C369.874 72.4737 371.119 73.9673 373.608 73.9673C374.703 73.9673 375.898 73.6188 377.192 72.9218C378.586 72.2248 379.831 71.2788 380.926 70.084L382.121 71.5776C377.84 76.7553 373.06 79.3442 367.783 79.3442ZM428.314 79.3442C424.232 79.3442 421.294 78.4481 419.502 76.6558C417.71 74.7639 416.813 71.7269 416.813 67.5449V35.8807H409.346C409.346 34.188 409.445 33.0927 409.644 32.5948C409.843 32.097 410.441 31.6987 411.437 31.4C414.722 30.5038 417.311 29.1098 419.203 27.2179C421.095 25.326 422.638 22.5878 423.833 19.0031C424.132 17.9078 424.63 17.2606 425.327 17.0615C426.024 16.7628 427.717 16.6134 430.405 16.6134V30.0557H442.653C442.653 31.3502 442.453 32.545 442.055 33.6403C441.657 34.6361 441.109 35.3829 440.412 35.8807H430.405V69.4865C430.405 72.4737 431.65 73.9673 434.139 73.9673C435.234 73.9673 436.429 73.6188 437.724 72.9218C439.118 72.2248 440.362 71.2788 441.458 70.084L442.653 71.5776C438.371 76.7553 433.591 79.3442 428.314 79.3442ZM447.179 53.9532C447.179 46.0869 449.419 39.8636 453.9 35.2833C458.48 30.7029 464.654 28.4128 472.421 28.4128C480.187 28.4128 486.361 30.7527 490.941 35.4326C495.521 40.013 497.812 46.1865 497.812 53.9532C497.812 61.7199 495.521 67.8934 490.941 72.4737C486.361 77.0541 480.187 79.3442 472.421 79.3442C464.654 79.3442 458.48 77.0541 453.9 72.4737C449.419 67.8934 447.179 61.7199 447.179 53.9532ZM482.726 54.2519C482.726 47.5805 481.78 42.1538 479.889 37.9718C477.997 33.6901 475.607 31.5493 472.719 31.5493C469.533 31.5493 466.944 33.6403 464.953 37.8224C462.961 41.9049 461.965 47.2818 461.965 53.9532C461.965 60.7241 462.862 66.1011 464.654 70.084C466.546 74.0669 469.035 76.0583 472.122 76.0583C475.209 76.0583 477.748 74.0669 479.739 70.084C481.731 66.0015 482.726 60.7241 482.726 54.2519ZM56.9969 166.519C53.5118 170.403 49.1804 172.344 44.0026 172.344C40.8163 172.344 38.2772 171.647 36.3853 170.253C34.593 168.859 33.199 166.519 32.2032 163.233L27.5731 150.09C26.9757 148.397 26.1791 147.103 25.1834 146.206C24.2872 145.31 23.0425 144.663 21.4494 144.265V155.467C21.4494 158.553 21.6485 160.993 22.0468 162.785C22.5447 164.578 23.3413 166.32 24.4366 168.013L25.6314 169.506L24.4366 171H2.77949L1.88334 168.461L3.97437 168.013C5.56753 167.615 6.61304 167.017 7.11091 166.221C7.60877 165.324 7.8577 163.632 7.8577 161.142V107.224C7.8577 105.83 7.21048 105.133 5.91603 105.133H1.2859L0.688464 103.639C2.58035 101.847 5.01988 100.453 8.00706 99.457C11.0938 98.3617 14.1308 97.814 17.118 97.814C18.4124 97.814 19.4579 98.1127 20.2545 98.7102C21.0511 99.208 21.4494 99.9548 21.4494 100.951V141.427L30.4109 134.855C32.502 133.362 33.9458 132.167 34.7423 131.27C35.5389 130.374 35.9372 129.428 35.9372 128.433C35.9372 127.039 35.3398 125.844 34.1449 124.848L32.95 123.952L34.1449 122.458H52.2174L53.1135 124.997C50.6242 125.595 47.8362 126.989 44.7494 129.179L27.125 142.024C31.5062 142.522 34.8917 143.568 37.2814 145.161C39.6712 146.754 41.4137 149.044 42.509 152.031L46.6911 163.98C47.3881 166.171 48.7821 167.266 50.8731 167.266C52.3667 167.266 54.0097 166.519 55.802 165.026L56.9969 166.519ZM110.443 162.487C110.443 165.474 111.389 166.967 113.281 166.967C115.173 166.967 117.015 166.221 118.807 164.727L120.002 166.221C116.318 170.303 111.986 172.344 107.008 172.344C103.423 172.344 100.834 171.448 99.241 169.656C97.7474 167.764 97.0006 164.727 97.0006 160.545V137.693C97.0006 131.918 95.1585 129.03 91.4743 129.03C87.8897 129.03 84.9523 131.47 82.6621 136.349C80.4715 141.228 79.3762 147.6 79.3762 155.467C79.3762 158.454 79.6251 160.893 80.123 162.785C80.6209 164.578 81.4175 166.32 82.5128 168.013L83.7076 169.506L82.5128 171H60.8557L59.9595 168.461L62.0506 168.013C63.6437 167.615 64.6892 167.017 65.1871 166.221C65.685 165.324 65.9339 163.632 65.9339 161.142V132.017C65.9339 130.125 65.2867 129.179 63.9922 129.179H59.2127L58.7647 127.536C60.7561 125.844 63.2454 124.45 66.2326 123.354C69.2198 122.259 72.207 121.711 75.1942 121.711C76.4886 121.711 77.4843 122.01 78.1813 122.608C78.9779 123.205 79.3762 124.002 79.3762 124.997V137.842C80.7702 133.162 83.2596 129.279 86.8442 126.192C90.4288 123.006 94.2126 121.413 98.1955 121.413C102.477 121.413 105.564 122.807 107.456 125.595C109.447 128.383 110.443 132.814 110.443 138.888V162.487ZM124.394 146.953C124.394 139.087 126.634 132.864 131.115 128.283C135.695 123.703 141.869 121.413 149.636 121.413C157.402 121.413 163.576 123.753 168.156 128.433C172.737 133.013 175.027 139.187 175.027 146.953C175.027 154.72 172.737 160.893 168.156 165.474C163.576 170.054 157.402 172.344 149.636 172.344C141.869 172.344 135.695 170.054 131.115 165.474C126.634 160.893 124.394 154.72 124.394 146.953ZM159.941 147.252C159.941 140.581 158.996 135.154 157.104 130.972C155.212 126.69 152.822 124.549 149.934 124.549C146.748 124.549 144.159 126.64 142.168 130.822C140.176 134.905 139.181 140.282 139.181 146.953C139.181 153.724 140.077 159.101 141.869 163.084C143.761 167.067 146.25 169.058 149.337 169.058C152.424 169.058 154.963 167.067 156.954 163.084C158.946 159.001 159.941 153.724 159.941 147.252ZM204.565 172.344C199.785 172.344 196.051 170.801 193.363 167.714C190.774 164.528 188.982 159.45 187.986 152.479L184.849 130.972C184.75 130.175 184.551 129.628 184.252 129.329C183.953 129.03 183.505 128.881 182.908 128.881H178.875L178.427 127.238C180.418 125.445 182.808 124.051 185.596 123.056C188.384 121.96 191.122 121.413 193.811 121.413C195.305 121.413 196.35 121.861 196.948 122.757C197.645 123.653 198.192 125.396 198.59 127.985L202.474 154.869C203.171 159.748 203.967 163.084 204.864 164.876C205.76 166.669 207.104 167.565 208.896 167.565C211.684 167.565 213.875 165.872 215.468 162.487C217.161 159.001 218.007 154.421 218.007 148.745C218.007 142.97 217.26 137.046 215.767 130.972C215.568 130.175 215.368 129.628 215.169 129.329C214.97 129.03 214.522 128.881 213.825 128.881H209.942L209.494 127.238C211.386 125.445 213.726 124.051 216.514 123.056C219.302 121.96 222.09 121.413 224.878 121.413C226.272 121.413 227.317 121.911 228.014 122.906C228.711 123.803 229.209 125.495 229.508 127.985L233.242 154.122C234.038 159.499 234.885 163.084 235.781 164.876C236.777 166.669 237.971 167.565 239.365 167.565C242.054 167.565 244.195 165.573 245.788 161.59C247.481 157.508 248.327 152.231 248.327 145.758C248.327 141.377 247.879 137.593 246.983 134.407C246.186 131.121 244.842 128.234 242.95 125.744L241.755 124.101L242.801 122.906L255.347 121.413C255.646 125.296 255.795 128.731 255.795 131.719C255.795 144.464 253.953 154.421 250.269 161.59C246.684 168.76 241.506 172.344 234.735 172.344C230.653 172.344 227.566 171.299 225.475 169.208C223.384 167.117 221.642 163.283 220.248 157.707C218.256 167.465 213.029 172.344 204.565 172.344ZM338.93 121.711V171C338.93 178.866 336.64 184.94 332.059 189.222C327.578 193.603 321.305 195.794 313.24 195.794C308.261 195.794 304.229 194.848 301.142 192.956C298.055 191.064 296.512 188.575 296.512 185.488C296.512 182.799 297.308 180.609 298.901 178.916C300.495 177.323 302.586 176.526 305.175 176.526C307.066 176.526 308.909 176.925 310.701 177.721C308.909 179.513 308.012 181.953 308.012 185.04C308.012 187.23 308.66 189.023 309.954 190.417C311.348 191.811 313.091 192.508 315.182 192.508C322.152 192.508 325.637 186.832 325.637 175.481V156.512C324.342 160.296 322.052 163.432 318.766 165.922C315.58 168.312 312.145 169.506 308.46 169.506C304.079 169.506 300.843 168.162 298.752 165.474C296.661 162.785 295.616 158.703 295.616 153.226V130.972C295.616 129.578 294.968 128.881 293.674 128.881H289.044L288.596 127.238C290.488 125.545 292.977 124.151 296.064 123.056C299.15 121.96 302.088 121.413 304.876 121.413C306.17 121.413 307.166 121.711 307.863 122.309C308.66 122.906 309.058 123.703 309.058 124.699V154.869C309.058 160.445 310.8 163.233 314.285 163.233C317.671 163.233 320.409 161.192 322.5 157.11C324.591 153.027 325.637 147.6 325.637 140.829C325.637 137.245 325.338 134.307 324.741 132.017C324.143 129.727 323.197 127.736 321.903 126.043L320.708 124.4L321.753 123.056L338.93 121.711ZM350.766 146.953C350.766 139.087 353.007 132.864 357.488 128.283C362.068 123.703 368.241 121.413 376.008 121.413C383.775 121.413 389.948 123.753 394.529 128.433C399.109 133.013 401.399 139.187 401.399 146.953C401.399 154.72 399.109 160.893 394.529 165.474C389.948 170.054 383.775 172.344 376.008 172.344C368.241 172.344 362.068 170.054 357.488 165.474C353.007 160.893 350.766 154.72 350.766 146.953ZM386.314 147.252C386.314 140.581 385.368 135.154 383.476 130.972C381.584 126.69 379.194 124.549 376.307 124.549C373.12 124.549 370.532 126.64 368.54 130.822C366.549 134.905 365.553 140.282 365.553 146.953C365.553 153.724 366.449 159.101 368.241 163.084C370.133 167.067 372.623 169.058 375.709 169.058C378.796 169.058 381.335 167.067 383.327 163.084C385.318 159.001 386.314 153.724 386.314 147.252ZM444.828 157.408C443.434 161.79 440.994 165.374 437.509 168.162C434.124 170.95 430.489 172.344 426.606 172.344C422.225 172.344 418.988 170.95 416.897 168.162C414.806 165.374 413.761 161.093 413.761 155.317V130.972C413.761 129.578 413.114 128.881 411.819 128.881H407.189L406.741 127.238C408.733 125.545 411.222 124.151 414.209 123.056C417.196 121.96 420.134 121.413 423.021 121.413C424.316 121.413 425.311 121.711 426.008 122.309C426.805 122.906 427.203 123.703 427.203 124.699V154.57C427.203 157.956 427.701 160.595 428.697 162.487C429.693 164.279 431.087 165.175 432.879 165.175C436.563 165.175 439.5 162.935 441.691 158.454C443.981 153.873 445.126 147.949 445.126 140.68C445.126 136.797 444.828 133.81 444.23 131.719C443.732 129.528 442.786 127.636 441.392 126.043L440.048 124.4L441.243 123.056L458.419 121.711V162.487C458.419 165.474 459.315 166.967 461.108 166.967C463 166.967 464.842 166.221 466.634 164.727L467.829 166.221C464.344 170.303 460.012 172.344 454.835 172.344C451.051 172.344 448.412 171.249 446.919 169.058C445.525 166.868 444.828 162.984 444.828 157.408ZM48.334 218.445C50.2259 221.034 51.2216 225.167 51.3212 230.842H51.6199C53.0139 226.063 55.3041 222.13 58.4904 219.043C61.6768 215.956 65.0622 214.413 68.6469 214.413C72.9285 214.413 76.0152 215.857 77.9071 218.744C79.8986 221.532 80.8943 225.913 80.8943 231.888V255.487C80.8943 258.474 81.8403 259.967 83.7321 259.967C85.624 259.967 87.4661 259.221 89.2584 257.727L90.4533 259.221C86.7691 263.303 82.4377 265.344 77.4591 265.344C73.7749 265.344 71.186 264.398 69.6924 262.506C68.1988 260.515 67.452 257.08 67.452 252.201V230.693C67.452 224.918 65.5601 222.03 61.7763 222.03C58.59 222.03 56.1007 224.719 54.3084 230.095C52.5161 235.373 51.6199 241.497 51.6199 248.467C51.7195 251.553 51.9684 253.993 52.3667 255.785C52.8646 257.578 53.6612 259.32 54.7565 261.013L55.9513 262.506L54.7565 264H38.1776V230.693C38.1776 224.918 36.2857 222.03 32.502 222.03C29.3156 222.03 26.8263 224.719 25.034 230.095C23.2417 235.373 22.3455 241.497 22.3455 248.467C22.3455 251.553 22.5447 253.993 22.943 255.785C23.4408 257.578 24.2872 259.32 25.4821 261.013L26.677 262.506L25.4821 264H3.82501L2.92885 261.461L5.01988 261.013C6.61304 260.615 7.65856 260.017 8.15642 259.221C8.65428 258.324 8.90322 256.632 8.90322 254.142V225.017C8.90322 223.524 8.25599 222.777 6.96155 222.777H2.18206L1.73398 221.283C3.72543 219.591 6.21475 218.197 9.20193 217.101C12.1891 216.006 15.1763 215.458 18.1635 215.458C19.4579 215.458 20.4537 215.757 21.1507 216.354C21.9472 216.852 22.3455 217.599 22.3455 218.595V230.842C23.64 226.262 25.8306 222.379 28.9173 219.192C32.0041 216.006 35.4891 214.413 39.3725 214.413C43.455 214.413 46.4421 215.757 48.334 218.445ZM94.7847 239.953C94.7847 232.087 97.0251 225.864 101.506 221.283C106.086 216.703 112.26 214.413 120.026 214.413C127.793 214.413 133.967 216.753 138.547 221.433C143.127 226.013 145.417 232.187 145.417 239.953C145.417 247.72 143.127 253.893 138.547 258.474C133.967 263.054 127.793 265.344 120.026 265.344C112.26 265.344 106.086 263.054 101.506 258.474C97.0251 253.893 94.7847 247.72 94.7847 239.953ZM130.332 240.252C130.332 233.581 129.386 228.154 127.494 223.972C125.602 219.69 123.213 217.549 120.325 217.549C117.139 217.549 114.55 219.64 112.558 223.822C110.567 227.905 109.571 233.282 109.571 239.953C109.571 246.724 110.467 252.101 112.26 256.084C114.152 260.067 116.641 262.058 119.728 262.058C122.814 262.058 125.354 260.067 127.345 256.084C129.336 252.001 130.332 246.724 130.332 240.252ZM184.813 214.413C188 214.413 190.588 215.359 192.58 217.251C194.571 219.043 195.567 221.383 195.567 224.27C195.567 226.959 194.771 229.15 193.177 230.842C191.584 232.435 189.493 233.232 186.904 233.232C184.913 233.232 183.071 232.834 181.378 232.037C183.17 230.544 184.066 228.303 184.066 225.316C184.066 223.922 183.768 222.827 183.17 222.03C182.573 221.234 181.776 220.835 180.781 220.835C178.391 220.835 176.399 223.275 174.806 228.154C173.213 232.933 172.416 238.908 172.416 246.077C172.416 249.761 172.616 252.698 173.014 254.889C173.512 257.08 174.308 259.121 175.404 261.013L176.598 262.506L175.404 264H153.747L152.85 261.461L154.941 261.013C156.535 260.615 157.58 260.017 158.078 259.221C158.576 258.324 158.825 256.632 158.825 254.142V225.017C158.825 223.125 158.178 222.179 156.883 222.179H152.253L151.656 220.536C153.547 218.844 155.887 217.45 158.675 216.354C161.563 215.259 164.401 214.711 167.189 214.711C168.483 214.711 169.529 215.01 170.325 215.608C171.122 216.205 171.52 217.002 171.52 217.997V228.901H171.968C174.059 219.242 178.341 214.413 184.813 214.413ZM228.185 260.415C231.072 260.415 233.611 259.918 235.802 258.922C237.992 257.826 240.133 256.034 242.224 253.545L244.017 254.889C241.726 258.175 238.789 260.764 235.204 262.656C231.719 264.448 227.886 265.344 223.704 265.344C219.123 265.344 214.991 264.249 211.307 262.058C207.722 259.868 204.885 256.881 202.794 253.097C200.702 249.213 199.657 244.832 199.657 239.953C199.657 232.187 201.997 226.013 206.677 221.433C211.456 216.753 217.779 214.413 225.645 214.413C231.222 214.413 235.752 215.757 239.237 218.445C242.822 221.034 244.614 224.42 244.614 228.602C244.614 233.381 242.573 237.215 238.49 240.103C234.507 242.891 229.031 244.285 222.061 244.285C219.273 244.285 216.734 244.085 214.444 243.687C214.941 248.865 216.435 252.947 218.924 255.935C221.414 258.922 224.5 260.415 228.185 260.415ZM224.003 217.997C220.916 217.997 218.476 219.889 216.684 223.673C214.991 227.357 214.145 232.535 214.145 239.206V241.596C215.24 241.596 216.584 241.497 218.178 241.297C222.36 240.8 225.546 239.455 227.736 237.265C230.027 234.975 231.172 231.987 231.172 228.303C231.172 225.316 230.475 222.876 229.081 220.985C227.786 218.993 226.094 217.997 224.003 217.997ZM250.996 256.831C250.996 255.138 251.942 253.296 253.834 251.304C255.725 249.213 257.468 248.168 259.061 248.168C260.654 248.168 262.397 249.213 264.289 251.304C266.28 253.296 267.276 255.138 267.276 256.831C267.276 258.523 266.28 260.366 264.289 262.357C262.397 264.349 260.654 265.344 259.061 265.344C257.468 265.344 255.725 264.349 253.834 262.357C251.942 260.366 250.996 258.523 250.996 256.831Z" fill="white"/>
</svg>
